<svg version="1.1" xmlns="http://www.w3.org/2000/svg" xmlns:xlink="http://www.w3.org/1999/xlink" width="22" height="22.99999" viewBox="0,0,22,22.99999"><g transform="translate(-232.54546,-172.54546)"><g data-paper-data="{&quot;isPaintingLayer&quot;:true}" fill-rule="nonzero" stroke-linecap="butt" stroke-dasharray="" stroke-dashoffset="0" style="mix-blend-mode: normal"><path d="M232.54546,184.54546c0,-6.07513 4.92487,-11 11,-11c6.07513,0 11,4.92487 11,11c0,6.07513 -4.92487,11 -11,11c-6.07513,0 -11,-4.92487 -11,-11z" fill="#000000" stroke="#f70505" stroke-width="0" stroke-linejoin="round" stroke-miterlimit="4" opacity="0.1"/><path d="M232.54546,183.54547c0,-6.07513 4.92487,-11 11,-11c6.07513,0 11,4.92487 11,11c0,6.07513 -4.92487,11 -11,11c-6.07513,0 -11,-4.92487 -11,-11z" fill="#737373" stroke="#f70505" stroke-width="0" stroke-linejoin="round" stroke-miterlimit="4"/><path d="M239.55319,179.58288h1c0.01037,-0.00012 0.02079,-0.00046 0.03125,0c0.25495,0.0112 0.50987,0.12858 0.6875,0.3125l2.28125,2.28125l2.3125,-2.28125c0.26563,-0.2305 0.44667,-0.3055 0.6875,-0.3125h1v1c0,0.28647 -0.03434,0.55065 -0.25,0.75l-2.28125,2.28125l2.25,2.25c0.18819,0.18817 0.28124,0.45345 0.28125,0.71875v1h-1c-0.2653,-0.00001 -0.53059,-0.0931 -0.71875,-0.28125l-2.28125,-2.28125l-2.28125,2.28125c-0.18816,0.18819 -0.45346,0.28125 -0.71875,0.28125h-1v-1c0,-0.26529 0.09306,-0.53058 0.28125,-0.71875l2.28125,-2.25l-2.28125,-2.28125c-0.21074,-0.19463 -0.30316,-0.46925 -0.28125,-0.75z" fill="#ffffff" stroke="none" stroke-width="1.78125" stroke-linejoin="miter" stroke-miterlimit="10"/></g></g></svg>